%
M48
M72
T01C0.0236
T02C0.0320
T03C0.0400
T04C0.0520
%
T01
X21354Y2629
X24151Y2601
T02
X2151Y4101
X3651Y4101
X2151Y6101
X3651Y8101
X6151Y9601
X6151Y10601
X6151Y11601
X7151Y12101
X9151Y12101
X9151Y13101
X9151Y14101
X9151Y15101
X7151Y16101
X8651Y17101
X8651Y18101
X12651Y18101
X12651Y17101
X12151Y15101
X12151Y14101
X12151Y13101
X13151Y13101
X12151Y12101
X14151Y11601
X14151Y9601
X15151Y8101
X16651Y8101
X18651Y7601
X18651Y5601
X16651Y4101
X15151Y4101
X15651Y3101
X19651Y3101
X23151Y6101
X23151Y7101
X23151Y8101
X23151Y9101
X23651Y10601
X23651Y11601
X25151Y12101
X25151Y13101
X25151Y14101
X23651Y14101
X22151Y15601
X21651Y17101
X20651Y17101
X22651Y17101
X26151Y17601
X26151Y16601
X26151Y15601
X27651Y16601
X29151Y16601
X29151Y17601
X27651Y12601
X27651Y10601
X27651Y9601
X29151Y9601
X26151Y9101
X26151Y8101
X26151Y7101
X26151Y6101
X27651Y5601
X29151Y5601
X26151Y4601
X26151Y2601
X18151Y9601
X18151Y11601
X19651Y11601
X18151Y13101
X19651Y14101
X18651Y14601
X18651Y16601
X10151Y10601
X10151Y9601
X5151Y13601
X2151Y11601
X1151Y13601
X2151Y16101
X4151Y16101
T03
X21151Y9101
X21151Y5101
X20651Y1101
X19651Y1101
X18651Y1101
X17651Y1101
X16651Y1101
X15651Y1101
X14651Y1101
X13651Y1101
X12651Y1101
X11651Y1101
X10651Y1101
X9651Y1101
X8651Y1101
X7651Y1101
X6651Y1101
X5651Y1101
X4651Y1101
X3651Y1101
X2651Y1101
X1651Y1101
X21651Y1101
X22651Y1101
X23651Y1101
X24651Y1101
X25651Y1101
X26651Y1101
X27651Y1101
X28651Y1101
X29651Y1101
X30651Y1101
T04
X6151Y4101
X8151Y4101
X11651Y3101
X10651Y7101
X12651Y7101
X7151Y8101
M30
