%
M48
M72
T01C0.0236
T02C0.0320
T03C0.0400
T04C0.0520
%
T01
X22354Y4129
X25151Y4101
T02
X3151Y5601
X4651Y5601
X3151Y7601
X4651Y9601
X7151Y11101
X7151Y12101
X7151Y13101
X8151Y13601
X10151Y13601
X10151Y14601
X10151Y15601
X10151Y16601
X8151Y17601
X9651Y18601
X9651Y19601
X13651Y19601
X13651Y18601
X13151Y16601
X13151Y15601
X13151Y14601
X14151Y14601
X13151Y13601
X15151Y13101
X15151Y11101
X16151Y9601
X17651Y9601
X19651Y9101
X19651Y7101
X17651Y5601
X16151Y5601
X16651Y4601
X20651Y4601
X24151Y7601
X24151Y8601
X24151Y9601
X24151Y10601
X24651Y12101
X24651Y13101
X26151Y13601
X26151Y14601
X26151Y15601
X24651Y15601
X23151Y17101
X22651Y18601
X21651Y18601
X23651Y18601
X27151Y19101
X27151Y18101
X27151Y17101
X28651Y18101
X30151Y18101
X30151Y19101
X28651Y14101
X28651Y12101
X28651Y11101
X30151Y11101
X27151Y10601
X27151Y9601
X27151Y8601
X27151Y7601
X28651Y7101
X30151Y7101
X27151Y6101
X27151Y4101
X19151Y11101
X19151Y13101
X20651Y13101
X19151Y14601
X20651Y15601
X19651Y16101
X19651Y18101
X11151Y12101
X11151Y11101
X6151Y15101
X3151Y13101
X2151Y15101
X3151Y17601
X5151Y17601
T03
X22151Y10601
X22151Y6601
X21651Y2601
X20651Y2601
X19651Y2601
X18651Y2601
X17651Y2601
X16651Y2601
X15651Y2601
X14651Y2601
X13651Y2601
X12651Y2601
X11651Y2601
X10651Y2601
X9651Y2601
X8651Y2601
X7651Y2601
X6651Y2601
X5651Y2601
X4651Y2601
X3651Y2601
X2651Y2601
X22651Y2601
X23651Y2601
X24651Y2601
X25651Y2601
X26651Y2601
X27651Y2601
X28651Y2601
X29651Y2601
X30651Y2601
X31651Y2601
T04
X7151Y5601
X9151Y5601
X12651Y4601
X11651Y8601
X13651Y8601
X8151Y9601
M30
