G75*
G70*
%OFA0B0*%
%FSLAX24Y24*%
%IPPOS*%
%LPD*%
%AMOC8*
5,1,8,0,0,1.08239X$1,22.5*
%
%ADD10C,0.0000*%
%ADD11C,0.0040*%
%ADD12C,0.0520*%
%ADD13OC8,0.0520*%
%ADD14C,0.0520*%
%ADD15OC8,0.0600*%
%ADD16C,0.0600*%
%ADD17C,0.0780*%
%ADD18C,0.0320*%
%ADD19C,0.0700*%
D10*
X000110Y000101D02*
X000110Y020597D01*
X031980Y020597D01*
X031980Y000101D01*
X000110Y000101D01*
D11*
X002500Y019621D02*
X002500Y020141D01*
X002760Y020141D01*
X002847Y020054D01*
X002847Y019881D01*
X002760Y019794D01*
X002500Y019794D01*
X002673Y019794D02*
X002847Y019621D01*
X003015Y019708D02*
X003102Y019621D01*
X003362Y019621D01*
X003362Y019968D01*
X003531Y019968D02*
X003618Y019968D01*
X003618Y019621D01*
X003531Y019621D02*
X003705Y019621D01*
X003875Y019621D02*
X004222Y019621D01*
X004222Y019968D02*
X003875Y019621D01*
X003875Y019968D02*
X004222Y019968D01*
X003618Y020141D02*
X003618Y020228D01*
X003015Y019968D02*
X003015Y019708D01*
X004906Y019708D02*
X004993Y019621D01*
X005080Y019621D01*
X005253Y019794D01*
X005253Y019621D02*
X004906Y019968D01*
X004906Y020054D01*
X004993Y020141D01*
X005080Y020054D01*
X005080Y019968D01*
X004906Y019794D01*
X004906Y019708D01*
X005937Y020141D02*
X006284Y020141D01*
X006111Y020141D02*
X006111Y019621D01*
X006453Y019708D02*
X006540Y019794D01*
X006800Y019794D01*
X006800Y019881D02*
X006800Y019621D01*
X006540Y019621D01*
X006453Y019708D01*
X006540Y019968D02*
X006713Y019968D01*
X006800Y019881D01*
X006969Y020141D02*
X007055Y020141D01*
X007055Y019621D01*
X006969Y019621D02*
X007142Y019621D01*
X007312Y019708D02*
X007312Y019881D01*
X007399Y019968D01*
X007573Y019968D01*
X007659Y019881D01*
X007659Y019794D01*
X007312Y019794D01*
X007312Y019708D02*
X007399Y019621D01*
X007573Y019621D01*
X007828Y019621D02*
X007828Y019968D01*
X008088Y019968D01*
X008175Y019881D01*
X008175Y019621D01*
X008430Y019708D02*
X008517Y019621D01*
X008430Y019708D02*
X008430Y020054D01*
X008344Y019968D02*
X008517Y019968D01*
X009203Y020054D02*
X009203Y019708D01*
X009550Y020054D01*
X009550Y019708D01*
X009463Y019621D01*
X009290Y019621D01*
X009203Y019708D01*
X009203Y020054D02*
X009290Y020141D01*
X009463Y020141D01*
X009550Y020054D01*
X009719Y019968D02*
X009892Y020141D01*
X009892Y019621D01*
X009719Y019621D02*
X010066Y019621D01*
X010234Y019621D02*
X010581Y020141D01*
X010750Y020054D02*
X010837Y020141D01*
X011010Y020141D01*
X011097Y020054D01*
X010750Y019708D01*
X010837Y019621D01*
X011010Y019621D01*
X011097Y019708D01*
X011097Y020054D01*
X011266Y019881D02*
X011266Y019708D01*
X011352Y019621D01*
X011526Y019621D01*
X011612Y019708D01*
X011612Y019794D01*
X011526Y019881D01*
X011266Y019881D01*
X011439Y020054D01*
X011612Y020141D01*
X012128Y020141D02*
X011781Y019621D01*
X012297Y019621D02*
X012644Y019968D01*
X012644Y020054D01*
X012557Y020141D01*
X012384Y020141D01*
X012297Y020054D01*
X012812Y020054D02*
X012812Y019708D01*
X013159Y020054D01*
X013159Y019708D01*
X013073Y019621D01*
X012899Y019621D01*
X012812Y019708D01*
X012644Y019621D02*
X012297Y019621D01*
X012812Y020054D02*
X012899Y020141D01*
X013073Y020141D01*
X013159Y020054D01*
X013328Y020054D02*
X013415Y020141D01*
X013588Y020141D01*
X013675Y020054D01*
X013675Y019968D01*
X013328Y019621D01*
X013675Y019621D01*
X013844Y019708D02*
X013930Y019621D01*
X014104Y019621D01*
X014191Y019708D01*
X014191Y019881D01*
X014104Y019968D01*
X014017Y019968D01*
X013844Y019881D01*
X013844Y020141D01*
X014191Y020141D01*
X014875Y019968D02*
X014875Y019881D01*
X014962Y019881D01*
X014962Y019968D01*
X014875Y019968D01*
X014875Y019708D02*
X014875Y019621D01*
X014962Y019621D01*
X014962Y019708D01*
X014875Y019708D01*
X015648Y019708D02*
X015735Y019621D01*
X015995Y019621D01*
X016164Y019708D02*
X016251Y019794D01*
X016511Y019794D01*
X016511Y019881D02*
X016511Y019621D01*
X016251Y019621D01*
X016164Y019708D01*
X016251Y019968D02*
X016424Y019968D01*
X016511Y019881D01*
X016680Y019968D02*
X016680Y019621D01*
X016680Y019794D02*
X016853Y019968D01*
X016940Y019968D01*
X017109Y019968D02*
X017283Y019968D01*
X017196Y020054D02*
X017196Y019708D01*
X017283Y019621D01*
X017453Y019708D02*
X017453Y019881D01*
X017540Y019968D01*
X017713Y019968D01*
X017800Y019881D01*
X017800Y019794D01*
X017453Y019794D01*
X017453Y019708D02*
X017540Y019621D01*
X017713Y019621D01*
X018484Y019621D02*
X018744Y019621D01*
X018831Y019708D01*
X018744Y019794D01*
X018571Y019794D01*
X018484Y019881D01*
X018571Y019968D01*
X018831Y019968D01*
X019000Y019968D02*
X019000Y019708D01*
X019087Y019621D01*
X019347Y019621D01*
X019347Y019968D01*
X019516Y019968D02*
X019602Y019968D01*
X019602Y019621D01*
X019516Y019621D02*
X019689Y019621D01*
X020033Y019621D02*
X020206Y019968D01*
X020375Y019968D02*
X020462Y019968D01*
X020462Y019621D01*
X020548Y019621D02*
X020375Y019621D01*
X020033Y019621D02*
X019859Y019968D01*
X019602Y020141D02*
X019602Y020228D01*
X020462Y020228D02*
X020462Y020141D01*
X020719Y019881D02*
X020805Y019968D01*
X020979Y019968D01*
X021066Y019881D01*
X021066Y019794D01*
X020719Y019794D01*
X020719Y019708D02*
X020719Y019881D01*
X020719Y019708D02*
X020805Y019621D01*
X020979Y019621D01*
X015995Y019968D02*
X015735Y019968D01*
X015648Y019881D01*
X015648Y019708D01*
X010750Y019708D02*
X010750Y020054D01*
D12*
X010480Y017361D02*
X010480Y016841D01*
X011480Y016841D02*
X011480Y017361D01*
X009480Y017361D02*
X009480Y016841D01*
X007240Y014101D02*
X006720Y014101D01*
X006720Y013101D02*
X007240Y013101D01*
X007240Y012101D02*
X006720Y012101D01*
X002980Y009861D02*
X002980Y009341D01*
X005720Y009101D02*
X006240Y009101D01*
X006240Y008101D02*
X005720Y008101D01*
X005720Y007101D02*
X006240Y007101D01*
X006240Y006101D02*
X005720Y006101D01*
X002980Y005861D02*
X002980Y005341D01*
X008720Y006101D02*
X009240Y006101D01*
X009240Y007101D02*
X008720Y007101D01*
X008720Y008101D02*
X009240Y008101D01*
X009240Y009101D02*
X008720Y009101D01*
X013720Y011601D02*
X014240Y011601D01*
X017720Y011601D02*
X018240Y011601D01*
X021720Y010601D02*
X022240Y010601D01*
X025720Y010601D02*
X026240Y010601D01*
X026720Y013601D02*
X027240Y013601D01*
X030720Y013601D02*
X031240Y013601D01*
X016980Y008361D02*
X016980Y007841D01*
X016980Y004361D02*
X016980Y003841D01*
D13*
X016480Y003101D03*
X015480Y004101D03*
X013480Y005601D03*
X013480Y007601D03*
X015480Y008101D03*
X013980Y009601D03*
X012480Y011601D03*
X013980Y013101D03*
X012480Y014101D03*
X013480Y014601D03*
X013480Y016601D03*
X009980Y015601D03*
X008480Y014101D03*
X005980Y015601D03*
X005980Y016601D03*
X005980Y017601D03*
X004480Y016601D03*
X002980Y016601D03*
X002980Y017601D03*
X004480Y012601D03*
X004480Y010601D03*
X004480Y009601D03*
X008480Y010601D03*
X008480Y011601D03*
X004480Y005601D03*
X005980Y004601D03*
X005980Y002601D03*
X012480Y003101D03*
X017980Y009601D03*
X021980Y009601D03*
X024980Y012101D03*
X025980Y011601D03*
X025980Y009601D03*
X028480Y008101D03*
X029980Y006101D03*
X029980Y004101D03*
X028480Y004101D03*
X029980Y011601D03*
X029980Y016101D03*
X027980Y016101D03*
X024980Y016101D03*
X023480Y017101D03*
X023480Y018101D03*
X019480Y018101D03*
X019480Y017101D03*
X018980Y013101D03*
D14*
X019980Y013101D03*
X019980Y014101D03*
X019980Y015101D03*
X022980Y015101D03*
X022980Y014101D03*
X022980Y013101D03*
X022980Y012101D03*
X019980Y012101D03*
D15*
X010980Y009101D03*
X010980Y005101D03*
D16*
X011480Y001401D02*
X011480Y000801D01*
X012480Y000801D02*
X012480Y001401D01*
X013480Y001401D02*
X013480Y000801D01*
X014480Y000801D02*
X014480Y001401D01*
X015480Y001401D02*
X015480Y000801D01*
X016480Y000801D02*
X016480Y001401D01*
X017480Y001401D02*
X017480Y000801D01*
X018480Y000801D02*
X018480Y001401D01*
X019480Y001401D02*
X019480Y000801D01*
X020480Y000801D02*
X020480Y001401D01*
X021480Y001401D02*
X021480Y000801D01*
X022480Y000801D02*
X022480Y001401D01*
X023480Y001401D02*
X023480Y000801D01*
X024480Y000801D02*
X024480Y001401D01*
X025480Y001401D02*
X025480Y000801D01*
X026480Y000801D02*
X026480Y001401D01*
X027480Y001401D02*
X027480Y000801D01*
X028480Y000801D02*
X028480Y001401D01*
X029480Y001401D02*
X029480Y000801D01*
X030480Y000801D02*
X030480Y001401D01*
X010480Y001401D02*
X010480Y000801D01*
X009480Y000801D02*
X009480Y001401D01*
X008480Y001401D02*
X008480Y000801D01*
X007480Y000801D02*
X007480Y001401D01*
X006480Y001401D02*
X006480Y000801D01*
X005480Y000801D02*
X005480Y001401D01*
X004480Y001401D02*
X004480Y000801D01*
X003480Y000801D02*
X003480Y001401D01*
X002480Y001401D02*
X002480Y000801D01*
X001480Y000801D02*
X001480Y001401D01*
D17*
X019480Y006711D02*
X019480Y007491D01*
X021480Y007491D02*
X021480Y006711D01*
X024590Y008101D02*
X025370Y008101D01*
X025980Y004491D02*
X025980Y003711D01*
X023980Y003711D02*
X023980Y004491D01*
X020870Y003101D02*
X020090Y003101D01*
D18*
X020480Y003101D02*
X016480Y003101D01*
X016980Y004101D02*
X021480Y004101D01*
X023980Y004101D01*
X024980Y005101D02*
X024980Y003101D01*
X024480Y002601D01*
X022980Y002601D01*
X022480Y002101D01*
X022480Y001101D01*
X024480Y001101D02*
X024480Y001601D01*
X024980Y002101D01*
X030480Y002101D01*
X030980Y002601D01*
X030980Y013601D01*
X030980Y015101D01*
X029980Y016101D01*
X028980Y017101D01*
X023480Y017101D01*
X023480Y018101D01*
X021980Y017601D02*
X021980Y017101D01*
X019980Y017101D01*
X019480Y017101D01*
X014480Y017101D01*
X014480Y013601D01*
X013980Y013101D01*
X012480Y014101D02*
X012980Y014601D01*
X013480Y014601D01*
X012480Y014101D02*
X012480Y011601D01*
X013980Y011601D01*
X015980Y013601D01*
X015980Y014601D01*
X017480Y016101D01*
X020480Y016101D01*
X020980Y015601D01*
X020980Y009101D01*
X020480Y008601D01*
X020480Y006601D01*
X019480Y005601D01*
X014980Y005601D01*
X014480Y005101D01*
X014480Y003601D01*
X012480Y001601D01*
X012480Y001101D01*
X011480Y001101D02*
X011480Y002101D01*
X012480Y003101D01*
X013480Y004101D01*
X013480Y005601D01*
X010980Y005101D02*
X010980Y007601D01*
X010480Y008101D01*
X008980Y008101D01*
X007980Y008101D01*
X006980Y007101D01*
X005980Y007101D01*
X005480Y007101D01*
X004480Y006101D01*
X004480Y005601D01*
X002980Y005601D01*
X001980Y004601D02*
X002980Y003601D01*
X008980Y003601D01*
X008980Y002101D01*
X008480Y001601D01*
X008480Y001101D01*
X007480Y001101D01*
X007980Y002601D02*
X005980Y002601D01*
X002480Y002601D01*
X002480Y001101D01*
X001480Y001101D01*
X002480Y002601D02*
X000980Y004101D01*
X000980Y017601D01*
X001980Y018601D01*
X008480Y018601D01*
X008980Y019101D01*
X020480Y019101D01*
X021980Y017601D01*
X021980Y017101D02*
X021980Y016101D01*
X021980Y016002D01*
X021980Y016101D01*
X024980Y016101D01*
X027980Y016101D01*
X025980Y013601D02*
X024480Y015101D01*
X022980Y015101D01*
X022980Y014101D02*
X023980Y014101D01*
X024980Y013101D01*
X024980Y012101D01*
X025480Y011601D01*
X025980Y011601D01*
X026980Y012601D02*
X027980Y011601D01*
X029980Y011601D01*
X028980Y009601D02*
X025980Y009601D01*
X025980Y010601D01*
X024480Y010601D01*
X023980Y011101D01*
X023980Y012601D01*
X023480Y013101D01*
X022980Y013101D01*
X022980Y012101D02*
X021980Y012101D01*
X021980Y016002D01*
X019980Y015101D02*
X017980Y015101D01*
X016980Y014101D01*
X016980Y012101D01*
X015480Y010601D01*
X008480Y010601D01*
X005980Y010601D01*
X005980Y009101D01*
X005980Y008101D02*
X005480Y008101D01*
X004480Y009101D01*
X004480Y010601D01*
X004480Y009601D01*
X002980Y009601D01*
X004980Y011601D02*
X005980Y010601D01*
X004980Y011601D02*
X001980Y011601D01*
X001980Y017101D01*
X002480Y017601D01*
X002980Y017601D01*
X005980Y017601D01*
X005980Y016601D02*
X005980Y015601D01*
X004480Y016601D02*
X002980Y016601D01*
X006980Y014101D02*
X008480Y014101D01*
X010980Y014101D01*
X011480Y014601D01*
X011480Y017101D01*
X013480Y017101D01*
X013480Y016601D01*
X013480Y017101D02*
X014480Y017101D01*
X010980Y018101D02*
X010480Y017601D01*
X010480Y017101D01*
X009480Y017101D02*
X009480Y016101D01*
X009980Y015601D01*
X010980Y018101D02*
X019480Y018101D01*
X019980Y014101D02*
X018480Y014101D01*
X017980Y013601D01*
X017980Y011601D01*
X017980Y011101D01*
X016480Y009601D01*
X013980Y009601D01*
X011980Y008601D02*
X011973Y003964D01*
X010777Y002629D01*
X009980Y002101D02*
X009980Y006601D01*
X009480Y007101D01*
X008980Y007101D01*
X008980Y006101D02*
X008980Y003601D01*
X009980Y002101D02*
X010480Y001601D01*
X010480Y001101D01*
X015480Y004101D02*
X016980Y004101D01*
X021480Y004101D02*
X021480Y007101D01*
X021480Y008601D01*
X021980Y009101D01*
X021980Y009601D01*
X021980Y010601D01*
X021980Y012101D01*
X019980Y012101D02*
X019980Y009601D01*
X018480Y008101D01*
X016980Y008101D01*
X015480Y008101D01*
X013980Y008101D01*
X013480Y007601D01*
X011980Y008601D02*
X011480Y009101D01*
X010980Y009101D01*
X008980Y009101D01*
X008480Y011601D02*
X008480Y012601D01*
X007980Y013101D01*
X006980Y013101D01*
X006480Y012101D02*
X005980Y012601D01*
X004480Y012601D01*
X006480Y012101D02*
X006980Y012101D01*
X001980Y011601D02*
X001980Y004601D01*
X005980Y004601D02*
X005980Y006101D01*
X017980Y009601D02*
X018980Y010601D01*
X018980Y013101D01*
X019980Y013101D01*
X025980Y013601D02*
X026980Y013601D01*
X026980Y012601D01*
X028980Y009601D02*
X029980Y008601D01*
X029980Y006101D01*
X029980Y004101D02*
X028480Y004101D01*
X026980Y005601D01*
X025480Y005601D01*
X024980Y005101D01*
X024980Y008101D02*
X028480Y008101D01*
D19*
X010777Y002629D03*
X007980Y002601D03*
M02*
