%
M48
M72
T01C0.0236
T02C0.0320
T03C0.0400
T04C0.0520
%
T01
X7980Y2601
X10777Y2629
T02
X5980Y2601
X5980Y4601
X4480Y5601
X2980Y5601
X5980Y6101
X5980Y7101
X5980Y8101
X5980Y9101
X4480Y9601
X2980Y9601
X4480Y10601
X6980Y12101
X6980Y13101
X6980Y14101
X8480Y14101
X9980Y15601
X10480Y17101
X11480Y17101
X9480Y17101
X5980Y17601
X5980Y16601
X5980Y15601
X4480Y16601
X2980Y16601
X2980Y17601
X4480Y12601
X8480Y11601
X8480Y10601
X8980Y9101
X8980Y8101
X8980Y7101
X8980Y6101
X13480Y5601
X15480Y4101
X16980Y4101
X16480Y3101
X12480Y3101
X13480Y7601
X15480Y8101
X16980Y8101
X17980Y9601
X17980Y11601
X18980Y13101
X19980Y13101
X19980Y14101
X19980Y15101
X22980Y15101
X22980Y14101
X22980Y13101
X22980Y12101
X24980Y12101
X25980Y11601
X25980Y10601
X25980Y9601
X28480Y8101
X29980Y6101
X29980Y4101
X28480Y4101
X21980Y9601
X21980Y10601
X19980Y12101
X13980Y11601
X12480Y11601
X13980Y13101
X12480Y14101
X13480Y14601
X13480Y16601
X19480Y17101
X19480Y18101
X23480Y18101
X23480Y17101
X24980Y16101
X27980Y16101
X29980Y16101
X30980Y13601
X29980Y11601
X26980Y13601
X13980Y9601
T03
X1480Y1101
X2480Y1101
X3480Y1101
X4480Y1101
X5480Y1101
X6480Y1101
X7480Y1101
X8480Y1101
X9480Y1101
X10480Y1101
X11480Y1101
X12480Y1101
X13480Y1101
X14480Y1101
X15480Y1101
X16480Y1101
X17480Y1101
X18480Y1101
X19480Y1101
X20480Y1101
X21480Y1101
X22480Y1101
X23480Y1101
X24480Y1101
X25480Y1101
X26480Y1101
X27480Y1101
X28480Y1101
X29480Y1101
X30480Y1101
X10980Y5101
X10980Y9101
T04
X19480Y7101
X21480Y7101
X24980Y8101
X25980Y4101
X23980Y4101
X20480Y3101
M30
