G75*
G70*
%OFA0B0*%
%FSLAX24Y24*%
%IPPOS*%
%LPD*%
%AMOC8*
5,1,8,0,0,1.08239X$1,22.5*
%
%ADD10C,0.0520*%
%ADD11OC8,0.0520*%
%ADD12C,0.0520*%
%ADD13OC8,0.0600*%
%ADD14C,0.0600*%
%ADD15C,0.0780*%
%ADD16R,0.0396X0.0396*%
%ADD17C,0.0320*%
D10*
X015156Y003849D02*
X015156Y004369D01*
X015156Y007849D02*
X015156Y008369D01*
X010416Y010609D02*
X009896Y010609D01*
X006416Y010609D02*
X005896Y010609D01*
X005416Y013609D02*
X004896Y013609D01*
X001416Y013609D02*
X000896Y013609D01*
X013896Y011609D02*
X014416Y011609D01*
X017896Y011609D02*
X018416Y011609D01*
X022896Y009109D02*
X023416Y009109D01*
X023416Y008109D02*
X022896Y008109D01*
X022896Y007109D02*
X023416Y007109D01*
X023416Y006109D02*
X022896Y006109D01*
X025896Y006109D02*
X026416Y006109D01*
X026416Y007109D02*
X025896Y007109D01*
X025896Y008109D02*
X026416Y008109D01*
X026416Y009109D02*
X025896Y009109D01*
X029156Y009349D02*
X029156Y009869D01*
X025416Y012109D02*
X024896Y012109D01*
X024896Y013109D02*
X025416Y013109D01*
X025416Y014109D02*
X024896Y014109D01*
X022656Y016849D02*
X022656Y017369D01*
X021656Y017369D02*
X021656Y016849D01*
X020656Y016849D02*
X020656Y017369D01*
X029156Y005869D02*
X029156Y005349D01*
D11*
X027656Y005609D03*
X026156Y004609D03*
X026156Y002609D03*
X019656Y003109D03*
X016656Y004109D03*
X015656Y003109D03*
X018656Y005609D03*
X018656Y007609D03*
X016656Y008109D03*
X018156Y009609D03*
X019656Y011609D03*
X018156Y013109D03*
X019656Y014109D03*
X018656Y014609D03*
X018656Y016609D03*
X022156Y015609D03*
X023656Y014109D03*
X026156Y015609D03*
X026156Y016609D03*
X026156Y017609D03*
X027656Y016609D03*
X029156Y016609D03*
X029156Y017609D03*
X027656Y012609D03*
X027656Y010609D03*
X027656Y009609D03*
X023656Y010609D03*
X023656Y011609D03*
X014156Y009609D03*
X010156Y009609D03*
X007156Y012109D03*
X006156Y011609D03*
X006156Y009609D03*
X003656Y008109D03*
X002156Y006109D03*
X002156Y004109D03*
X003656Y004109D03*
X002156Y011609D03*
X002156Y016109D03*
X004156Y016109D03*
X007156Y016109D03*
X008656Y017109D03*
X008656Y018109D03*
X012656Y018109D03*
X012656Y017109D03*
X013156Y013109D03*
D12*
X012156Y013109D03*
X012156Y012109D03*
X009156Y012109D03*
X009156Y013109D03*
X009156Y014109D03*
X009156Y015109D03*
X012156Y015109D03*
X012156Y014109D03*
D13*
X021156Y009109D03*
X021156Y005109D03*
D14*
X001656Y001409D02*
X001656Y000809D01*
X002656Y000809D02*
X002656Y001409D01*
X003656Y001409D02*
X003656Y000809D01*
X004656Y000809D02*
X004656Y001409D01*
X005656Y001409D02*
X005656Y000809D01*
X006656Y000809D02*
X006656Y001409D01*
X007656Y001409D02*
X007656Y000809D01*
X008656Y000809D02*
X008656Y001409D01*
X009656Y001409D02*
X009656Y000809D01*
X010656Y000809D02*
X010656Y001409D01*
X011656Y001409D02*
X011656Y000809D01*
X012656Y000809D02*
X012656Y001409D01*
X013656Y001409D02*
X013656Y000809D01*
X014656Y000809D02*
X014656Y001409D01*
X015656Y001409D02*
X015656Y000809D01*
X016656Y000809D02*
X016656Y001409D01*
X017656Y001409D02*
X017656Y000809D01*
X018656Y000809D02*
X018656Y001409D01*
X019656Y001409D02*
X019656Y000809D01*
X020656Y000809D02*
X020656Y001409D01*
X021656Y001409D02*
X021656Y000809D01*
X022656Y000809D02*
X022656Y001409D01*
X023656Y001409D02*
X023656Y000809D01*
X024656Y000809D02*
X024656Y001409D01*
X025656Y001409D02*
X025656Y000809D01*
X026656Y000809D02*
X026656Y001409D01*
X027656Y001409D02*
X027656Y000809D01*
X028656Y000809D02*
X028656Y001409D01*
X029656Y001409D02*
X029656Y000809D01*
X030656Y000809D02*
X030656Y001409D01*
D15*
X012656Y006719D02*
X012656Y007499D01*
X010656Y007499D02*
X010656Y006719D01*
X007546Y008109D02*
X006766Y008109D01*
X006156Y004499D02*
X006156Y003719D01*
X008156Y003719D02*
X008156Y004499D01*
X011266Y003109D02*
X012046Y003109D01*
D16*
X021156Y002609D03*
X024156Y002609D03*
D17*
X021156Y002609D01*
M02*
