G75*
G70*
%OFA0B0*%
%FSLAX24Y24*%
%IPPOS*%
%LPD*%
%AMOC8*
5,1,8,0,0,1.08239X$1,22.5*
%
%ADD10C,0.0040*%
%ADD11C,0.0520*%
%ADD12OC8,0.0520*%
%ADD13C,0.0520*%
%ADD14OC8,0.0600*%
%ADD15C,0.0600*%
%ADD16C,0.0780*%
%ADD17C,0.0320*%
%ADD18R,0.0396X0.0396*%
%ADD19C,0.0160*%
D10*
X011157Y019629D02*
X011331Y019629D01*
X011417Y019716D01*
X011417Y019889D01*
X011331Y019976D01*
X011157Y019976D01*
X011070Y019889D01*
X011070Y019803D01*
X011417Y019803D01*
X011588Y019629D02*
X011761Y019629D01*
X011674Y019629D02*
X011674Y019976D01*
X011761Y019976D01*
X011930Y019976D02*
X012103Y019629D01*
X012277Y019976D01*
X012534Y019976D02*
X012534Y019629D01*
X012620Y019629D02*
X012447Y019629D01*
X012789Y019629D02*
X012789Y019976D01*
X012620Y019976D02*
X012534Y019976D01*
X012534Y020150D02*
X012534Y020236D01*
X013136Y019976D02*
X013136Y019716D01*
X013049Y019629D01*
X012789Y019629D01*
X013305Y019716D02*
X013391Y019629D01*
X013652Y019629D01*
X013565Y019803D02*
X013391Y019803D01*
X013305Y019716D01*
X013305Y019976D02*
X013565Y019976D01*
X013652Y019889D01*
X013565Y019803D01*
X014336Y019803D02*
X014683Y019803D01*
X014683Y019889D02*
X014683Y019716D01*
X014596Y019629D01*
X014423Y019629D01*
X014336Y019803D02*
X014336Y019889D01*
X014423Y019976D01*
X014596Y019976D01*
X014683Y019889D01*
X014853Y019976D02*
X015027Y019976D01*
X014940Y020063D02*
X014940Y019716D01*
X014853Y019629D01*
X015196Y019976D02*
X015283Y019976D01*
X015456Y019803D01*
X015625Y019803D02*
X015885Y019803D01*
X015972Y019716D01*
X015885Y019629D01*
X015625Y019629D01*
X015625Y019889D01*
X015712Y019976D01*
X015885Y019976D01*
X016141Y019976D02*
X016401Y019976D01*
X016488Y019889D01*
X016488Y019716D01*
X016401Y019629D01*
X016141Y019629D01*
X015456Y019629D02*
X015456Y019976D01*
X017174Y019976D02*
X017174Y019889D01*
X017261Y019889D01*
X017261Y019976D01*
X017174Y019976D01*
X017174Y019716D02*
X017174Y019629D01*
X017261Y019629D01*
X017261Y019716D01*
X017174Y019716D01*
X017945Y019716D02*
X018032Y019629D01*
X018206Y019629D01*
X018292Y019716D01*
X018292Y019889D02*
X018119Y019976D01*
X018032Y019976D01*
X017945Y019889D01*
X017945Y019716D01*
X018292Y019889D02*
X018292Y020150D01*
X017945Y020150D01*
X018461Y020063D02*
X018548Y020150D01*
X018721Y020150D01*
X018808Y020063D01*
X018977Y020063D02*
X018977Y019716D01*
X019063Y019629D01*
X019237Y019629D01*
X019324Y019716D01*
X018977Y020063D01*
X019063Y020150D01*
X019237Y020150D01*
X019324Y020063D01*
X019324Y019716D01*
X019492Y019629D02*
X019839Y019629D01*
X019492Y019976D01*
X019492Y020063D01*
X019579Y020150D01*
X019752Y020150D01*
X019839Y020063D01*
X020008Y020150D02*
X020355Y019629D01*
X020523Y019716D02*
X020523Y019803D01*
X020610Y019889D01*
X020870Y019889D01*
X020870Y019716D01*
X020784Y019629D01*
X020610Y019629D01*
X020523Y019716D01*
X020870Y019889D02*
X020697Y020063D01*
X020523Y020150D01*
X021039Y020063D02*
X021039Y019716D01*
X021126Y019629D01*
X021299Y019629D01*
X021386Y019716D01*
X021039Y020063D01*
X021126Y020150D01*
X021299Y020150D01*
X021386Y020063D01*
X021386Y019716D01*
X021555Y020150D02*
X021902Y019629D01*
X022070Y019629D02*
X022417Y019629D01*
X022244Y019629D02*
X022244Y020150D01*
X022417Y019976D01*
X022586Y020063D02*
X022586Y019716D01*
X022673Y019629D01*
X022846Y019629D01*
X022933Y019716D01*
X022586Y020063D01*
X022673Y020150D01*
X022846Y020150D01*
X022933Y020063D01*
X022933Y019716D01*
X023619Y019629D02*
X023706Y019716D01*
X023706Y020063D01*
X023792Y019976D02*
X023619Y019976D01*
X023961Y019889D02*
X023961Y019629D01*
X024308Y019629D02*
X024308Y019976D01*
X024048Y019976D01*
X023961Y019889D01*
X024477Y019889D02*
X024477Y019803D01*
X024824Y019803D01*
X024824Y019889D02*
X024824Y019716D01*
X024737Y019629D01*
X024563Y019629D01*
X024994Y019629D02*
X025167Y019629D01*
X025081Y019629D02*
X025081Y020150D01*
X025167Y020150D01*
X025423Y019976D02*
X025336Y019889D01*
X025336Y019629D01*
X025596Y019629D01*
X025683Y019716D01*
X025596Y019803D01*
X025336Y019803D01*
X025423Y019976D02*
X025596Y019976D01*
X025852Y020150D02*
X026199Y020150D01*
X026025Y020150D02*
X026025Y019629D01*
X026883Y019629D02*
X027230Y019976D01*
X027230Y020063D01*
X027143Y020150D01*
X027056Y020063D01*
X027056Y019976D01*
X027230Y019803D01*
X027230Y019716D01*
X027143Y019629D01*
X027056Y019629D01*
X026883Y019803D01*
X027914Y019976D02*
X028261Y019629D01*
X027914Y019629D01*
X027914Y019976D02*
X028261Y019976D01*
X028518Y019976D02*
X028518Y019629D01*
X028605Y019629D02*
X028431Y019629D01*
X028774Y019629D02*
X028774Y019976D01*
X028605Y019976D02*
X028518Y019976D01*
X028518Y020150D02*
X028518Y020236D01*
X029120Y019976D02*
X029120Y019716D01*
X029034Y019629D01*
X028774Y019629D01*
X029289Y019629D02*
X029463Y019803D01*
X029376Y019803D02*
X029636Y019803D01*
X029636Y019629D02*
X029636Y020150D01*
X029376Y020150D01*
X029289Y020063D01*
X029289Y019889D01*
X029376Y019803D01*
X024824Y019889D02*
X024737Y019976D01*
X024563Y019976D01*
X024477Y019889D01*
X018808Y019629D02*
X018461Y019976D01*
X018461Y020063D01*
X018461Y019629D02*
X018808Y019629D01*
X011674Y020150D02*
X011674Y020236D01*
D11*
X020656Y017369D02*
X020656Y016849D01*
X021656Y016849D02*
X021656Y017369D01*
X022656Y017369D02*
X022656Y016849D01*
X024896Y014109D02*
X025416Y014109D01*
X025416Y013109D02*
X024896Y013109D01*
X024896Y012109D02*
X025416Y012109D01*
X029156Y009869D02*
X029156Y009349D01*
X026416Y009109D02*
X025896Y009109D01*
X025896Y008109D02*
X026416Y008109D01*
X026416Y007109D02*
X025896Y007109D01*
X025896Y006109D02*
X026416Y006109D01*
X029156Y005869D02*
X029156Y005349D01*
X023416Y006109D02*
X022896Y006109D01*
X022896Y007109D02*
X023416Y007109D01*
X023416Y008109D02*
X022896Y008109D01*
X022896Y009109D02*
X023416Y009109D01*
X018416Y011609D02*
X017896Y011609D01*
X014416Y011609D02*
X013896Y011609D01*
X010416Y010609D02*
X009896Y010609D01*
X006416Y010609D02*
X005896Y010609D01*
X005416Y013609D02*
X004896Y013609D01*
X001416Y013609D02*
X000896Y013609D01*
X015156Y008369D02*
X015156Y007849D01*
X015156Y004369D02*
X015156Y003849D01*
D12*
X015656Y003109D03*
X016656Y004109D03*
X018656Y005609D03*
X018656Y007609D03*
X016656Y008109D03*
X018156Y009609D03*
X019656Y011609D03*
X018156Y013109D03*
X019656Y014109D03*
X018656Y014609D03*
X018656Y016609D03*
X022156Y015609D03*
X023656Y014109D03*
X026156Y015609D03*
X026156Y016609D03*
X026156Y017609D03*
X027656Y016609D03*
X029156Y016609D03*
X029156Y017609D03*
X027656Y012609D03*
X027656Y010609D03*
X027656Y009609D03*
X023656Y010609D03*
X023656Y011609D03*
X027656Y005609D03*
X026156Y004609D03*
X026156Y002609D03*
X019656Y003109D03*
X014156Y009609D03*
X010156Y009609D03*
X007156Y012109D03*
X006156Y011609D03*
X006156Y009609D03*
X003656Y008109D03*
X002156Y006109D03*
X002156Y004109D03*
X003656Y004109D03*
X002156Y011609D03*
X002156Y016109D03*
X004156Y016109D03*
X007156Y016109D03*
X008656Y017109D03*
X008656Y018109D03*
X012656Y018109D03*
X012656Y017109D03*
X013156Y013109D03*
D13*
X012156Y013109D03*
X012156Y012109D03*
X009156Y012109D03*
X009156Y013109D03*
X009156Y014109D03*
X009156Y015109D03*
X012156Y015109D03*
X012156Y014109D03*
D14*
X021156Y009109D03*
X021156Y005109D03*
D15*
X001656Y001409D02*
X001656Y000809D01*
X002656Y000809D02*
X002656Y001409D01*
X003656Y001409D02*
X003656Y000809D01*
X004656Y000809D02*
X004656Y001409D01*
X005656Y001409D02*
X005656Y000809D01*
X006656Y000809D02*
X006656Y001409D01*
X007656Y001409D02*
X007656Y000809D01*
X008656Y000809D02*
X008656Y001409D01*
X009656Y001409D02*
X009656Y000809D01*
X010656Y000809D02*
X010656Y001409D01*
X011656Y001409D02*
X011656Y000809D01*
X012656Y000809D02*
X012656Y001409D01*
X013656Y001409D02*
X013656Y000809D01*
X014656Y000809D02*
X014656Y001409D01*
X015656Y001409D02*
X015656Y000809D01*
X016656Y000809D02*
X016656Y001409D01*
X017656Y001409D02*
X017656Y000809D01*
X018656Y000809D02*
X018656Y001409D01*
X019656Y001409D02*
X019656Y000809D01*
X020656Y000809D02*
X020656Y001409D01*
X021656Y001409D02*
X021656Y000809D01*
X022656Y000809D02*
X022656Y001409D01*
X023656Y001409D02*
X023656Y000809D01*
X024656Y000809D02*
X024656Y001409D01*
X025656Y001409D02*
X025656Y000809D01*
X026656Y000809D02*
X026656Y001409D01*
X027656Y001409D02*
X027656Y000809D01*
X028656Y000809D02*
X028656Y001409D01*
X029656Y001409D02*
X029656Y000809D01*
X030656Y000809D02*
X030656Y001409D01*
D16*
X012656Y006719D02*
X012656Y007499D01*
X010656Y007499D02*
X010656Y006719D01*
X007546Y008109D02*
X006766Y008109D01*
X006156Y004499D02*
X006156Y003719D01*
X008156Y003719D02*
X008156Y004499D01*
X011266Y003109D02*
X012046Y003109D01*
D17*
X011656Y003109D02*
X015656Y003109D01*
X015156Y004109D02*
X010656Y004109D01*
X008156Y004109D01*
X007156Y003109D02*
X007656Y002609D01*
X009156Y002609D01*
X009656Y002109D01*
X009656Y001109D01*
X007656Y001109D02*
X007656Y001609D01*
X007156Y002109D01*
X001656Y002109D01*
X001156Y002609D01*
X001156Y013609D01*
X001156Y015109D01*
X002156Y016109D01*
X003156Y017109D01*
X008656Y017109D01*
X008656Y018109D01*
X010156Y017609D02*
X010156Y017109D01*
X010156Y016109D01*
X010156Y012109D01*
X009156Y012109D01*
X010156Y012109D02*
X010156Y010609D01*
X010156Y009609D01*
X010156Y009109D01*
X010656Y008609D01*
X010656Y007109D01*
X010656Y004109D01*
X012656Y005609D02*
X011656Y006609D01*
X011656Y008609D01*
X011156Y009109D01*
X011156Y015609D01*
X011656Y016109D01*
X014656Y016109D01*
X016156Y014609D01*
X016156Y013609D01*
X018156Y011609D01*
X019656Y011609D01*
X019656Y014109D01*
X019156Y014609D01*
X018656Y014609D01*
X017656Y013609D02*
X017656Y017109D01*
X018656Y017109D01*
X018656Y016609D01*
X018656Y017109D02*
X020656Y017109D01*
X020656Y014609D01*
X021156Y014109D01*
X023656Y014109D01*
X025156Y014109D01*
X025156Y013109D02*
X024156Y013109D01*
X023656Y012609D01*
X023656Y011609D01*
X023656Y010609D02*
X026156Y010609D01*
X026156Y009109D01*
X026156Y008109D02*
X026656Y008109D01*
X027656Y009109D01*
X027656Y010609D01*
X027656Y009609D01*
X029156Y009609D01*
X027156Y011609D02*
X026156Y010609D01*
X027156Y011609D02*
X030156Y011609D01*
X030156Y017109D01*
X029656Y017609D01*
X029156Y017609D01*
X026156Y017609D01*
X026156Y016609D02*
X026156Y015609D01*
X027656Y016609D02*
X029156Y016609D01*
X030156Y018609D02*
X031156Y017609D01*
X031156Y004109D01*
X029656Y002609D01*
X029656Y001109D01*
X030656Y001109D01*
X029656Y002609D02*
X026156Y002609D01*
X024156Y002609D01*
X023656Y001609D02*
X023156Y002109D01*
X023156Y003609D01*
X029156Y003609D01*
X030156Y004609D01*
X030156Y011609D01*
X027656Y012609D02*
X026156Y012609D01*
X025656Y012109D01*
X025156Y012109D01*
X023656Y010609D02*
X016656Y010609D01*
X015156Y012109D01*
X015156Y014109D01*
X014156Y015109D01*
X012156Y015109D01*
X012156Y014109D02*
X013656Y014109D01*
X014156Y013609D01*
X014156Y011609D01*
X014156Y011109D01*
X015656Y009609D01*
X018156Y009609D01*
X020156Y008609D02*
X020156Y003609D01*
X021156Y002609D01*
X020656Y002109D02*
X020656Y001109D01*
X019656Y001109D02*
X019656Y001609D01*
X017656Y003609D01*
X017656Y005109D01*
X017156Y005609D01*
X012656Y005609D01*
X015156Y004109D02*
X016656Y004109D01*
X018656Y004109D02*
X019656Y003109D01*
X020656Y002109D01*
X021656Y001609D02*
X022156Y002109D01*
X022156Y006609D01*
X022656Y007109D01*
X023156Y007109D01*
X023156Y006109D02*
X023156Y003609D01*
X021156Y005109D02*
X021156Y007609D01*
X021656Y008109D01*
X023156Y008109D01*
X024156Y008109D01*
X025156Y007109D01*
X026156Y007109D01*
X026656Y007109D01*
X027656Y006109D01*
X027656Y005609D01*
X029156Y005609D01*
X026156Y006109D02*
X026156Y004609D01*
X023656Y001609D02*
X023656Y001109D01*
X024656Y001109D01*
X021656Y001109D02*
X021656Y001609D01*
X018656Y004109D02*
X018656Y005609D01*
X018656Y007609D02*
X018156Y008109D01*
X016656Y008109D01*
X015156Y008109D01*
X013656Y008109D01*
X012156Y009609D01*
X012156Y012109D01*
X012156Y013109D02*
X013156Y013109D01*
X013156Y010609D01*
X014156Y009609D01*
X017656Y013609D02*
X018156Y013109D01*
X022156Y015609D02*
X022656Y016109D01*
X022656Y017109D01*
X021656Y017109D02*
X021656Y017609D01*
X021156Y018109D01*
X012656Y018109D01*
X012656Y017109D02*
X012156Y017109D01*
X012656Y017109D02*
X017656Y017109D01*
X023156Y019109D02*
X011656Y019109D01*
X010156Y017609D01*
X010156Y016109D02*
X007156Y016109D01*
X004156Y016109D01*
X006156Y013609D02*
X007656Y015109D01*
X009156Y015109D01*
X009156Y014109D02*
X008156Y014109D01*
X007156Y013109D01*
X007156Y012109D01*
X006656Y011609D01*
X006156Y011609D01*
X005156Y012609D02*
X004156Y011609D01*
X002156Y011609D01*
X003156Y009609D02*
X006156Y009609D01*
X006156Y010609D01*
X007656Y010609D01*
X008156Y011109D01*
X008156Y012609D01*
X008656Y013109D01*
X009156Y013109D01*
X006156Y013609D02*
X005156Y013609D01*
X005156Y012609D01*
X003156Y009609D02*
X002156Y008609D01*
X002156Y006109D01*
X002156Y004109D02*
X003656Y004109D01*
X005156Y005609D01*
X006656Y005609D01*
X007156Y005109D01*
X007156Y003109D01*
X007156Y008109D02*
X003656Y008109D01*
X020156Y008609D02*
X020656Y009109D01*
X021156Y009109D01*
X023156Y009109D01*
X023656Y018609D02*
X023156Y019109D01*
X023656Y018609D02*
X030156Y018609D01*
D18*
X024156Y002609D03*
X021156Y002609D03*
D19*
X012156Y017109D02*
X010156Y017109D01*
M02*
